<svg width="48" height="48" viewBox="0 0 48 48" fill="none" xmlns="http://www.w3.org/2000/svg">
<mask id="mask0_1_20430" style="mask-type:alpha" maskUnits="userSpaceOnUse" x="0" y="0" width="48" height="48">
<rect width="48" height="48" fill="#C4C4C4"/>
</mask>
<g mask="url(#mask0_1_20430)">
<rect width="48" height="48" fill="#F5EFFF"/>
<path d="M21.1646 0.173459C21.1646 0.173459 15.1084 0.545892 12.6355 6.06864C10.1057 11.7189 11.8001 14.9064 8.52872 18.1442C5.25735 21.382 4.23734 25.8848 7.83753 28.5925C12.1222 31.8169 17.2658 28.0825 21.3525 29.7131C30.9888 33.5616 42.6147 28.8575 39.9943 21.7712C38.7428 18.3858 36.4578 19.4527 35.2902 10.1788C34.5756 4.47489 30.4486 -1.05792 21.1646 0.173459Z" fill="#19274B"/>
<path d="M49 47.6201H-1C-1 47.6201 -0.328947 44.4393 0.6273 41.2451C1.58355 38.0509 3.55979 36.7122 6.11985 36.0579C6.84123 35.8734 8.1632 35.4875 9.68984 35.0346C10.5521 34.7762 11.4849 34.4944 12.4076 34.2159C15.6286 33.2361 18.7725 32.2598 18.7725 32.2598L23.9732 31.8437L24.0034 31.8404L24.0336 31.8437L28.7242 32.2195C28.7242 32.2195 31.546 33.065 34.6261 33.9777C37.5183 34.8299 40.6421 35.7425 41.8801 36.0613C44.4402 36.7189 46.4165 38.0543 47.3727 41.2485C48.3289 44.4427 49 47.6201 49 47.6201Z" fill="#FFAC32"/>
<path d="M10.5958 43.1375C10.4884 44.6507 10.2469 46.1337 9.46846 47.6201H-0.996582C-0.996582 47.6201 -0.325529 44.4393 0.630718 41.2451C1.58697 38.0509 3.56321 36.7122 6.12327 36.0579C6.84465 35.8734 8.16662 35.4875 9.69326 35.0345C10.418 36.8464 10.7938 40.3291 10.5958 43.1375Z" fill="#FF8881"/>
<path d="M37.4074 43.1375C37.5148 44.6507 37.7564 46.1337 38.5348 47.6201H48.9998C48.9998 47.6201 48.3288 44.4393 47.3725 41.2451C46.4163 38.0509 44.44 36.7122 41.88 36.0579C41.1586 35.8734 39.8366 35.4875 38.31 35.0345C37.5853 36.8464 37.2095 40.3291 37.4074 43.1375Z" fill="#FF8881"/>
<path d="M34.6262 33.9743C33.9619 37.5443 31.6937 44.3823 24.0572 44.7346C15.5919 45.1238 13.0519 37.1416 12.4077 34.2125C15.6288 33.2328 18.7726 32.2564 18.7726 32.2564L23.9733 31.8403L24.0035 31.837L24.0337 31.8403L28.7243 32.2161C28.7243 32.2161 31.5427 33.065 34.6262 33.9743Z" fill="#FF8881"/>
<path d="M24.0304 38.9233C20.645 38.9233 18.6989 37.2155 17.6588 35.7828C16.5415 34.2427 16.2228 32.7161 16.2127 32.6523C16.1758 32.4644 16.2966 32.2832 16.4811 32.2463C16.669 32.2094 16.8502 32.3302 16.8871 32.5147C16.8938 32.5449 17.1991 33.9843 18.2326 35.4003C19.6049 37.2826 21.5576 38.2355 24.0304 38.2355C26.5033 38.2355 28.3486 37.2826 29.5096 35.4003C30.3853 33.9877 30.5296 32.5651 30.5296 32.5517C30.5463 32.3638 30.7174 32.2228 30.9053 32.243C31.0932 32.2597 31.2342 32.4275 31.214 32.6188C31.2073 32.6825 31.053 34.2159 30.0934 35.766C29.2042 37.202 27.4293 38.9233 24.0304 38.9233Z" fill="#F5EFFF"/>
<path d="M24.0305 31.837V31.8404H24.0034L24.0305 31.837Z" fill="#5D46C2"/>
<path d="M24.0037 31.8404H23.9731V31.837L24.0037 31.8404Z" fill="#5D46C2"/>
<path d="M28.6401 33.4911C28.6401 33.4911 27.3449 35.9136 23.728 35.9136C20.2318 35.9136 18.7622 33.3703 18.7622 33.3703L18.9769 31.6289L19.0139 31.337L19.3494 28.5924L27.9992 28.834L28.1435 29.8775L28.1905 30.2197L28.6401 33.4911Z" fill="#FF8881"/>
<path d="M28.1368 29.8775C26.1774 31.5384 23.0066 32.1691 18.9736 31.6289L19.0105 31.337L19.3461 28.5924L27.9959 28.834L28.1368 29.8775Z" fill="#19274B"/>
<path d="M16.0982 21.4525C14.1622 24.1535 9.99838 22.3282 10.2802 18.7448C10.5386 15.4935 14.169 16.0103 14.169 16.0103L16.0982 21.4525Z" fill="#F55B5D"/>
<path d="M14.9843 21.8316C16.3734 22.3987 17.3531 23.7609 17.3531 25.3513C17.3531 27.445 15.6487 29.1494 13.555 29.1494C11.4613 29.1494 9.75684 27.445 9.75684 25.3513C9.75684 23.5831 10.9714 22.0933 12.6122 21.6706C12.8571 21.6068 13.1154 21.5666 13.3772 21.5565C13.4174 21.6806 13.4476 21.8081 13.4577 21.9423C13.3 21.9457 13.1423 21.9625 12.9879 21.9893C11.3741 22.2577 10.1393 23.6636 10.1393 25.3513C10.1393 27.2336 11.6693 28.7636 13.5516 28.7636C15.4339 28.7636 16.9639 27.2336 16.9639 25.3513C16.9639 24.0025 16.1754 22.8348 15.038 22.2812L14.9843 21.8316Z" fill="#F5EFFF"/>
<path d="M14.3168 21.5229C14.1994 21.5229 14.0954 21.4424 14.0652 21.325C13.686 19.7849 12.0889 18.3489 12.0755 18.3354C11.9681 18.2415 11.9581 18.0771 12.0554 17.9697C12.1493 17.8623 12.3137 17.8523 12.4211 17.9496C12.4916 18.0133 14.1558 19.5064 14.5718 21.2008C14.6054 21.3384 14.5215 21.4793 14.3839 21.5129C14.3571 21.5196 14.337 21.5229 14.3168 21.5229Z" fill="#D1373F"/>
<path d="M13.6524 20.0601C13.6256 20.0601 13.5987 20.0567 13.5719 20.0466C12.8639 19.8084 12.1895 19.9527 12.1828 19.956C12.0453 19.9862 11.9077 19.899 11.8741 19.7614C11.8439 19.6239 11.9312 19.4863 12.0687 19.4528C12.1023 19.446 12.8874 19.2749 13.7363 19.5601C13.8705 19.6037 13.9443 19.7514 13.9007 19.8856C13.8604 19.9929 13.7598 20.0601 13.6524 20.0601Z" fill="#D1373F"/>
<path d="M30.4219 21.4525C32.3579 24.1535 36.5217 22.3282 36.2399 18.7448C35.9815 15.4935 32.3511 16.0103 32.3511 16.0103L30.4219 21.4525Z" fill="#F55B5D"/>
<path d="M32.0055 21.8316C30.6165 22.3987 29.6367 23.7609 29.6367 25.3513C29.6367 27.445 31.3412 29.1494 33.4349 29.1494C35.5285 29.1494 37.233 27.445 37.233 25.3513C37.233 23.5831 36.0184 22.0933 34.3777 21.6706C34.1328 21.6068 33.8744 21.5666 33.6127 21.5565C33.5724 21.6806 33.5422 21.8081 33.5322 21.9423C33.6899 21.9457 33.8476 21.9625 34.0019 21.9893C35.6158 22.2577 36.8505 23.6636 36.8505 25.3513C36.8505 27.2336 35.3205 28.7636 33.4382 28.7636C31.5559 28.7636 30.0259 27.2336 30.0259 25.3513C30.0259 24.0025 30.8144 22.8348 31.9519 22.2812L32.0055 21.8316Z" fill="#F5EFFF"/>
<path d="M32.2036 21.5229C32.1834 21.5229 32.1633 21.5196 32.1432 21.5162C32.0056 21.4827 31.9184 21.3417 31.9553 21.2042C32.3713 19.5098 34.0355 18.0133 34.106 17.9529C34.2134 17.859 34.3744 17.8691 34.4717 17.9731C34.5657 18.0804 34.5556 18.2415 34.4516 18.3388C34.4348 18.3522 32.8377 19.7883 32.4619 21.3283C32.425 21.4424 32.3176 21.5229 32.2036 21.5229Z" fill="#D1373F"/>
<path d="M32.8676 20.0601C32.7603 20.0601 32.6596 19.9929 32.6227 19.8822C32.5791 19.748 32.6496 19.6004 32.7871 19.5568C33.636 19.2716 34.4211 19.4427 34.4547 19.4494C34.5923 19.4796 34.6828 19.6172 34.6493 19.7581C34.6191 19.8956 34.4815 19.9829 34.3406 19.9527C34.3305 19.9493 33.6561 19.8084 32.9515 20.0433C32.9247 20.0567 32.8945 20.0601 32.8676 20.0601Z" fill="#D1373F"/>
<path d="M13.4004 12.0611C13.4004 12.0611 12.4543 17.9194 14.9036 23.6502C17.1214 28.8441 20.0741 30.4613 23.2179 30.5116C26.7913 30.5687 34.2735 28.5019 33.0891 11.5478C32.2872 0.0929174 14.3466 0.495547 13.4004 12.0611Z" fill="#FF8881"/>
<path d="M32.8676 12.6583C28.0361 12.7825 24.6607 11.4907 22.4898 10.1687C23.3756 11.3867 24.8788 12.1584 24.8788 12.1584C21.7651 12.9536 19.7486 9.99427 18.8863 8.32335C16.5846 11.9135 13.283 13.6247 13.283 13.6247C11.2833 1.43166 19.8627 0.418377 26.8282 1.07936C33.3374 1.70008 36.5886 12.561 32.8676 12.6583Z" fill="#19274B"/>
<path d="M16.0276 11.2424C16.0276 11.2424 14.3164 14.6346 14.8801 18.1442C15.4237 21.5296 15.1787 24.7809 13.5078 25.3546C13.5078 25.3546 14.6419 23.7307 13.6085 20.9357C12.5751 18.1408 12.2999 14.4366 12.9878 12.7254C13.6756 11.0143 16.0276 11.2424 16.0276 11.2424Z" fill="#19274B"/>
<path d="M30.7437 11.2424C30.7437 11.2424 32.4548 14.6346 31.8911 18.1442C31.3476 21.5296 31.5925 24.7809 33.2635 25.3546C33.2635 25.3546 32.1294 23.7307 33.1628 20.9357C34.1962 18.1408 34.4713 14.4366 33.7835 12.7254C33.0957 11.0143 30.7437 11.2424 30.7437 11.2424Z" fill="#19274B"/>
<path d="M16.7358 15.0305C16.7358 15.0305 18.1048 13.1247 20.4635 12.8798C20.846 12.8395 21.1849 13.1348 21.2084 13.5173V13.524C21.2319 13.9132 20.9232 14.242 20.534 14.2487C19.6482 14.2588 18.0947 14.3863 16.7358 15.0305Z" fill="#19274B"/>
<path d="M29.9689 15.0305C29.9689 15.0305 28.6 13.1247 26.2412 12.8798C25.8587 12.8395 25.5199 13.1348 25.4964 13.5173V13.524C25.4729 13.9132 25.7816 14.242 26.1708 14.2487C27.0566 14.2588 28.6134 14.3863 29.9689 15.0305Z" fill="#19274B"/>
<path d="M23.6612 27.4718C22.9264 27.4718 22.3426 27.2135 22.3057 27.1967C22.1983 27.1464 22.148 27.0189 22.1983 26.9115C22.2487 26.8041 22.3728 26.7538 22.4835 26.8041C22.5037 26.8108 23.829 27.3913 24.8892 26.6934C24.9899 26.6296 25.1208 26.6565 25.1879 26.7538C25.2516 26.8544 25.2248 26.9853 25.1275 27.0524C24.6376 27.3712 24.1209 27.4718 23.6612 27.4718Z" fill="#F55B5D"/>
<path d="M24.4224 21.9893C24.4157 21.9893 24.4123 21.9893 24.4056 21.9893L22.832 21.8618C22.7146 21.8517 22.624 21.7477 22.6341 21.6303C22.6441 21.5129 22.7481 21.4223 22.8656 21.4323L24.1808 21.5397L23.7715 17.5402C23.7581 17.4228 23.8453 17.3154 23.9628 17.3054C24.0802 17.292 24.1875 17.3792 24.1976 17.4966L24.6338 21.7511C24.6405 21.8148 24.617 21.8786 24.5734 21.9222C24.5365 21.9658 24.4795 21.9893 24.4224 21.9893Z" fill="#F55B5D"/>
<path d="M20.2856 23.7038C22.2216 24.0058 24.1912 24.1367 26.8284 23.6133C26.8284 23.6133 26.6002 26.4317 23.4698 26.4417C20.8057 26.4518 20.2856 23.7038 20.2856 23.7038Z" fill="#F5EFFF"/>
<path d="M20.1313 17.5168C20.1313 18.2616 19.7924 18.8689 19.373 18.8689C18.9536 18.8689 18.6147 18.265 18.6147 17.5168C18.6147 16.7719 18.9536 16.1646 19.373 16.1646C19.7924 16.1646 20.1313 16.7719 20.1313 17.5168Z" fill="#19274B"/>
<path d="M28.1875 17.5168C28.1875 18.2616 27.8486 18.8689 27.4292 18.8689C27.0098 18.8689 26.6709 18.265 26.6709 17.5168C26.6709 16.7719 27.0098 16.1646 27.4292 16.1646C27.8452 16.1646 28.1875 16.7719 28.1875 17.5168Z" fill="#19274B"/>
<path d="M17.3634 20.2882C17.3634 20.4157 17.2594 20.5197 17.1319 20.5197C17.0044 20.5197 16.9004 20.4157 16.9004 20.2882C16.9004 20.1607 17.0044 20.0567 17.1319 20.0567C17.2594 20.0533 17.3634 20.1573 17.3634 20.2882Z" fill="#F55B5D"/>
<path d="M18.4977 20.8485C18.4977 20.976 18.3937 21.08 18.2662 21.08C18.1387 21.08 18.0347 20.976 18.0347 20.8485C18.0347 20.721 18.1387 20.617 18.2662 20.617C18.3937 20.617 18.4977 20.721 18.4977 20.8485Z" fill="#F55B5D"/>
<path d="M17.3634 21.6538C17.3634 21.7813 17.2594 21.8853 17.1319 21.8853C17.0044 21.8853 16.9004 21.7813 16.9004 21.6538C16.9004 21.5263 17.0044 21.4223 17.1319 21.4223C17.2594 21.4223 17.3634 21.5263 17.3634 21.6538Z" fill="#F55B5D"/>
<path d="M18.9136 22.1202C19.0415 22.1202 19.1452 22.0165 19.1452 21.8886C19.1452 21.7608 19.0415 21.6571 18.9136 21.6571C18.7858 21.6571 18.6821 21.7608 18.6821 21.8886C18.6821 22.0165 18.7858 22.1202 18.9136 22.1202Z" fill="#F55B5D"/>
<path d="M20.1011 21.8853C20.229 21.8853 20.3327 21.7816 20.3327 21.6538C20.3327 21.5259 20.229 21.4223 20.1011 21.4223C19.9733 21.4223 19.8696 21.5259 19.8696 21.6538C19.8696 21.7816 19.9733 21.8853 20.1011 21.8853Z" fill="#F55B5D"/>
<path d="M19.7926 20.5197C19.7926 20.6472 19.6886 20.7512 19.5611 20.7512C19.4336 20.7512 19.3296 20.6472 19.3296 20.5197C19.3296 20.3922 19.4336 20.2882 19.5611 20.2882C19.6886 20.2882 19.7926 20.3922 19.7926 20.5197Z" fill="#F55B5D"/>
<path d="M30.1265 20.5197C30.2544 20.5197 30.358 20.416 30.358 20.2882C30.358 20.1603 30.2544 20.0567 30.1265 20.0567C29.9987 20.0567 29.895 20.1603 29.895 20.2882C29.895 20.416 29.9987 20.5197 30.1265 20.5197Z" fill="#F55B5D"/>
<path d="M28.9927 21.08C29.1206 21.08 29.2243 20.9764 29.2243 20.8485C29.2243 20.7207 29.1206 20.617 28.9927 20.617C28.8649 20.617 28.7612 20.7207 28.7612 20.8485C28.7612 20.9764 28.8649 21.08 28.9927 21.08Z" fill="#F55B5D"/>
<path d="M30.1265 21.8853C30.2544 21.8853 30.358 21.7816 30.358 21.6538C30.358 21.5259 30.2544 21.4223 30.1265 21.4223C29.9987 21.4223 29.895 21.5259 29.895 21.6538C29.895 21.7816 29.9987 21.8853 30.1265 21.8853Z" fill="#F55B5D"/>
<path d="M28.3419 22.1202C28.4697 22.1202 28.5734 22.0165 28.5734 21.8886C28.5734 21.7608 28.4697 21.6571 28.3419 21.6571C28.214 21.6571 28.1104 21.7608 28.1104 21.8886C28.1104 22.0165 28.214 22.1202 28.3419 22.1202Z" fill="#F55B5D"/>
<path d="M26.9224 21.6538C26.9224 21.7813 27.0264 21.8853 27.1539 21.8853C27.2814 21.8853 27.3854 21.7813 27.3854 21.6538C27.3854 21.5263 27.2814 21.4223 27.1539 21.4223C27.0264 21.4223 26.9224 21.5263 26.9224 21.6538Z" fill="#F55B5D"/>
<path d="M27.6939 20.7512C27.8218 20.7512 27.9254 20.6476 27.9254 20.5197C27.9254 20.3919 27.8218 20.2882 27.6939 20.2882C27.5661 20.2882 27.4624 20.3919 27.4624 20.5197C27.4624 20.6476 27.5661 20.7512 27.6939 20.7512Z" fill="#F55B5D"/>
</g>
</svg>
