<svg width="50" height="28" viewBox="0 0 50 28" fill="none" xmlns="http://www.w3.org/2000/svg">
<g clip-path="url(#clip0_1_2102)">
<path d="M42.1602 3.35687H7.6123V15.1143H42.1602V3.35687Z" fill="white" stroke="#231F20" stroke-miterlimit="10"/>
<path d="M24.8871 0C11.1419 0 0 4.23071 0 9.44974C0 14.6688 11.1419 18.899 24.8871 18.899C38.6324 18.899 49.7743 14.6683 49.7743 9.44974C49.7743 4.23123 38.6308 0 24.8871 0ZM14.9539 5.91591C13.5759 5.90862 12.1973 5.92216 10.8199 5.9029C10.4863 5.89822 10.4037 5.99398 10.4173 6.28803C10.441 6.81108 10.43 7.33621 10.4221 7.85978C10.4189 8.05651 10.4547 8.14342 10.7104 8.1403C11.9948 8.1252 13.2796 8.1429 14.5645 8.13145C14.8413 8.12885 14.9328 8.20431 14.9218 8.46349C14.9023 8.92149 14.9028 9.38104 14.9218 9.83903C14.9323 10.093 14.8281 10.1471 14.5756 10.1451C13.3259 10.1346 12.0758 10.1513 10.8262 10.1346C10.5136 10.13 10.4084 10.1898 10.4137 10.5036C10.4347 11.7262 10.4137 12.9497 10.4289 14.1717C10.4316 14.4179 10.3658 14.484 10.0985 14.4783C9.38643 14.4582 8.67402 14.4582 7.96125 14.4783C7.69818 14.4856 7.65872 14.4013 7.65977 14.1832C7.66871 12.5235 7.6645 10.8638 7.6645 9.20461H7.66135C7.66135 7.59955 7.66135 5.9945 7.66135 4.38944C7.66135 3.84766 7.66608 3.94758 8.12173 3.94758C10.3411 3.95036 12.5604 3.95036 14.7797 3.94758C15.229 3.94758 15.2285 3.94342 15.229 4.37435C15.2296 4.80528 15.2238 5.22632 15.2375 5.65152C15.2438 5.85294 15.1669 5.91695 14.9539 5.91591ZM24.8224 12.7546C24.8061 13.223 24.8035 13.6914 24.8224 14.1624C24.8314 14.3981 24.7745 14.4793 24.4994 14.4778C22.1632 14.467 19.8271 14.467 17.491 14.4778C17.2332 14.4778 17.1848 14.3955 17.1863 14.1775C17.1942 12.5292 17.1905 10.8804 17.1905 9.23323C17.1905 7.59539 17.2 5.95755 17.1821 4.32022C17.179 4.01524 17.3031 3.95591 17.5841 3.95851C18.2965 3.9684 19.01 3.97725 19.7213 3.95487C20.0407 3.94498 20.1386 4.02253 20.1365 4.33271C20.1223 6.90892 20.1365 9.48513 20.1165 12.0624C20.1165 12.3991 20.2075 12.4824 20.5611 12.4787C21.8807 12.4584 23.2008 12.4787 24.5204 12.4636C24.7761 12.4579 24.8303 12.5339 24.8224 12.7546ZM29.1648 14.216C29.1648 14.4106 29.1164 14.4814 28.8928 14.4762C28.1561 14.4627 27.4195 14.4606 26.6861 14.4762C26.4346 14.4814 26.3772 14.407 26.3788 14.1827C26.3883 12.5235 26.3841 10.8648 26.3841 9.20617H26.3814C26.3814 7.55844 26.3872 5.91019 26.3751 4.26193C26.3751 4.01056 26.4277 3.92104 26.7166 3.92937C27.4279 3.94967 28.1409 3.94498 28.8528 3.92937C29.108 3.92364 29.1685 4.00743 29.1685 4.23019C29.1614 7.55896 29.1602 10.8876 29.1648 14.216ZM37.7632 9.57621C38.8071 11.0855 39.8299 12.6073 40.8575 14.1265C40.9233 14.2238 41.0033 14.3201 41.0033 14.4705C39.9594 14.4705 38.9223 14.4679 37.8858 14.4731C37.698 14.4731 37.6585 14.3471 37.5959 14.2337C37.0031 13.1581 36.4103 12.0825 35.8175 11.0069C35.7822 10.9424 35.7786 10.8508 35.6481 10.8289C35.2703 11.5909 34.8883 12.359 34.5079 13.1283C34.3174 13.5144 34.1248 13.8996 33.9428 14.2894C33.8849 14.4132 33.8186 14.4741 33.6603 14.4731C32.679 14.4674 31.6977 14.4731 30.7138 14.4731C30.6501 14.4731 30.5559 14.5038 30.5275 14.4309C30.4923 14.3451 30.5586 14.2774 30.6122 14.203C31.7529 12.6224 32.8852 11.0361 34.0322 9.45807C34.1606 9.28111 34.1433 9.16714 34.0259 8.99695C32.9754 7.47482 31.931 5.95043 30.8927 4.42379C30.8248 4.32491 30.7701 4.21874 30.7169 4.12922C30.7696 4.02513 30.8501 4.05167 30.9132 4.05167C31.825 4.05167 32.7363 4.05427 33.6492 4.04751C33.8344 4.04751 33.9375 4.09643 34.0286 4.25933C34.6236 5.3226 35.234 6.37807 35.838 7.43665C35.8654 7.48454 35.8785 7.54074 35.9717 7.56104C36.3963 6.69502 36.8309 5.829 37.2518 4.95413C37.6569 4.10684 37.6485 4.1032 38.6266 4.1032C39.3511 4.1032 40.0757 4.1032 40.8002 4.10684C40.888 4.10684 41.0059 4.0626 41.058 4.14952C41.1101 4.23643 41.0022 4.30565 40.9528 4.37539C39.8926 5.89041 38.8366 7.40751 37.7616 8.91368C37.5864 9.15985 37.5917 9.32952 37.7632 9.57621Z" fill="#E52625"/>
<path d="M6.69386 21.8067H4.29196V27.8959H2.36307V21.8067H0.00537109V20.4166H6.69386V21.8067Z" fill="white"/>
<path d="M12.47 24.7212H9.43621V26.5089H13.0193V27.8959H7.50732V20.4166H13.032V21.8067H9.43621V23.3841H12.47V24.7212Z" fill="white"/>
<path d="M15.732 26.5099H19.0899V27.8959H13.8052V20.4166H15.732V26.5099Z" fill="white"/>
<path d="M24.868 24.7212H21.8352V26.5089H25.4183V27.8959H19.9053V20.4166H25.4299V21.8067H21.8352V23.3841H24.869L24.868 24.7212Z" fill="white"/>
<path d="M32.6775 25.3645C32.6611 25.8569 32.505 26.3348 32.2271 26.7436C31.9518 27.1426 31.5659 27.4518 31.0696 27.6711C30.5733 27.8903 30.0064 28 29.3691 28C28.3168 28 27.4888 27.6797 26.8851 27.0392C26.2814 26.3988 25.9792 25.4946 25.9785 24.3267V23.9566C25.9785 23.2239 26.115 22.582 26.3879 22.031C26.6438 21.4997 27.0541 21.0561 27.5665 20.7569C28.0796 20.4572 28.6731 20.3073 29.347 20.3073C30.3182 20.3073 31.0987 20.5462 31.6884 21.0239C32.278 21.5017 32.6133 22.1609 32.6944 23.0016H30.7707C30.756 22.5457 30.6332 22.2185 30.4024 22.0201C30.1716 21.8216 29.8198 21.7224 29.347 21.7224C28.8671 21.7224 28.5163 21.8901 28.2947 22.2256C28.073 22.5612 27.9544 23.097 27.939 23.8333V24.3626C27.939 25.1606 28.0461 25.7308 28.2605 26.0733C28.4748 26.4158 28.8431 26.587 29.3654 26.587C29.8091 26.587 30.1481 26.4893 30.3824 26.294C30.6168 26.0986 30.7413 25.7888 30.756 25.3645H32.6775Z" fill="white"/>
<path d="M40.3663 24.3111C40.3663 25.0397 40.2216 25.6854 39.9322 26.2482C39.6597 26.7917 39.2303 27.2431 38.6984 27.5451C38.1649 27.8484 37.5575 28 36.8763 28C36.1951 28 35.5906 27.8536 35.0627 27.5607C34.5368 27.2693 34.1081 26.8328 33.8288 26.3044C33.5342 25.76 33.3795 25.1355 33.3647 24.4308V24.0082C33.3647 23.2747 33.5086 22.6281 33.7962 22.0685C34.0688 21.524 34.4993 21.0723 35.0327 20.771C35.5693 20.4664 36.1802 20.3141 36.8653 20.3141C37.5429 20.3141 38.1475 20.4648 38.6789 20.7663C39.2096 21.0669 39.6402 21.514 39.918 22.0529C40.2134 22.608 40.3628 23.2461 40.3663 23.9671V24.3111ZM38.4043 23.9988C38.4043 23.2556 38.2715 22.6913 38.006 22.3058C37.7404 21.9203 37.3602 21.7276 36.8653 21.7276C35.8982 21.7276 35.3871 22.4059 35.332 23.7625L35.3268 24.3121C35.3268 25.0449 35.4567 25.6084 35.7167 26.0025C35.9766 26.3967 36.3624 26.5936 36.8742 26.5932C37.3614 26.5932 37.7369 26.3996 38.0007 26.0124C38.2645 25.6252 38.3983 25.0687 38.4022 24.3428L38.4043 23.9988Z" fill="white"/>
<path d="M43.8938 20.4166L45.6827 25.621L47.4632 20.4166H50.0025V27.8959H48.0651V26.1503L48.2519 22.5743L46.3178 27.8959H45.0424L43.1025 22.5697L43.2898 26.1503V27.8959H41.3604V20.4166H43.8938Z" fill="white"/>
</g>
<defs>
<clipPath id="clip0_1_2102">
<rect width="50" height="28" fill="white"/>
</clipPath>
</defs>
</svg>
